<svg  xmlns="http://www.w3.org/2000/svg" width="32" height="32" viewBox="0 0 1280.000000 1280.000000"
    preserveAspectRatio="xMidYMid meet">
                            <g id="fill-svg" fill="#154050" transform="translate(0.000000,1280.000000) scale(0.100000,-0.100000)" stroke="none">
                            <path d="M11255 12084 c-132 -31 -211 -65 -298 -128 -34 -25 -474 -457 -977
                            -960 l-915 -916 -650 648 c-503 502 -670 662 -740 711 -109 76 -296 169 -425
                            209 -516 163 -1067 65 -1485 -263 -44 -35 -877 -861 -1851 -1837 -1431 -1434
                            -1782 -1790 -1831 -1861 -122 -174 -219 -397 -265 -611 -19 -86 -22 -133 -23
                            -316 0 -188 3 -229 23 -324 60 -281 186 -534 368 -739 39 -45 1052 -1061 2250
                            -2258 2279 -2277 2237 -2236 2456 -2370 232 -141 511 -241 800 -286 155 -24
                            461 -24 617 1 391 60 739 213 1041 457 53 43 718 701 1501 1486 1455 1457
                            1462 1465 1589 1673 161 265 269 591 300 909 55 563 -123 1139 -484 1568 -41
                            48 -547 560 -1125 1138 l-1051 1050 929 930 c510 511 942 950 958 975 43 64
                            68 116 95 196 20 60 23 88 23 214 -1 129 -4 153 -27 223 -72 213 -238 380
                            -453 453 -67 23 -100 28 -205 30 -69 2 -134 1 -145 -2z m-4438 -1804 c15 -6
                            296 -279 630 -613 l603 -602 -583 -585 c-630 -633 -630 -633 -684 -795 -24
                            -71 -27 -95 -27 -220 0 -125 3 -149 27 -220 38 -113 90 -198 177 -285 87 -87
                            172 -139 285 -177 71 -24 95 -27 220 -27 125 0 149 3 220 27 162 54 162 54
                            795 684 l585 583 1056 -1058 c647 -648 1068 -1077 1087 -1108 32 -50 82 -164
                            82 -184 0 -7 -1140 -10 -3538 -10 l-3537 0 -482 483 c-332 332 -487 494 -498
                            519 -19 47 -19 79 0 126 11 26 503 525 1713 1735 933 935 1711 1708 1727 1718
                            33 21 98 25 142 9z"/>
                            <path d="M1323 4696 c-104 -34 -150 -82 -286 -297 -272 -432 -499 -831 -681
                            -1198 -184 -371 -293 -651 -337 -866 -18 -85 -20 -124 -16 -265 4 -141 9 -182
                            35 -280 111 -428 379 -756 775 -945 217 -104 392 -139 657 -132 152 4 190 9
                            290 35 283 73 494 195 689 398 238 247 377 562 397 906 8 119 -5 232 -42 372
                            -109 420 -467 1131 -987 1961 -132 211 -168 254 -244 291 -64 32 -185 41 -250
                            20z"/>
                            </g>
</svg> 