<svg class="svg-icon" style="width: 1em; height: 1em;vertical-align: middle;fill: currentColor;overflow: hidden;" viewBox="0 0 1000 1000" version="1.1" xmlns="http://www.w3.org/2000/svg"><path fill="#154050" d="M426.666667 170.666667v170.666666h170.666666V170.666667h-170.666666m256 0v170.666666h170.666666V170.666667h-170.666666m0 256v170.666666h170.666666v-170.666666h-170.666666m0 256v170.666666h170.666666v-170.666666h-170.666666m-85.333334 170.666666v-170.666666h-170.666666v170.666666h170.666666m-256 0v-170.666666H170.666667v170.666666h170.666666m0-256v-170.666666H170.666667v170.666666h170.666666m0-256V170.666667H170.666667v170.666666h170.666666m85.333334 256h170.666666v-170.666666h-170.666666v170.666666M170.666667 85.333333h682.666666a85.333333 85.333333 0 0 1 85.333334 85.333334v682.666666a85.333333 85.333333 0 0 1-85.333334 85.333334H170.666667c-46.08 0-85.333333-38.4-85.333334-85.333334V170.666667a85.333333 85.333333 0 0 1 85.333334-85.333334z"  /></svg>